<?xml version="1.0" standalone="no"?>
<!DOCTYPE svg PUBLIC "-//W3C//DTD SVG 20010904//EN"
 "http://www.w3.org/TR/2001/REC-SVG-20010904/DTD/svg10.dtd">
<svg version="1.0" xmlns="http://www.w3.org/2000/svg"
 width="512.000000pt" height="512.000000pt" viewBox="0 0 512.000000 512.000000"
 preserveAspectRatio="xMidYMid meet">
<metadata>
Created by potrace 1.14, written by Peter Selinger 2001-2017
</metadata>
<g transform="translate(0.000000,512.000000) scale(0.100000,-0.100000)"
fill="#000000" stroke="none">
<path d="M3508 5115 c-2 -2 -23 -5 -48 -8 -88 -11 -271 -79 -375 -140 -136
-80 -304 -237 -383 -359 -84 -130 -148 -274 -171 -388 -6 -30 -14 -66 -17 -80
-2 -14 -5 -72 -5 -129 0 -125 5 -133 87 -136 180 -5 417 84 582 220 89 73 195
197 258 300 64 105 133 277 149 371 3 22 10 62 15 89 4 28 8 89 8 137 -1 105
-12 128 -63 126 -19 -1 -36 -2 -37 -3z"/>
<path d="M3417 3904 c-1 -1 -27 -4 -57 -8 -120 -13 -233 -46 -510 -149 -96
-36 -197 -68 -224 -72 -47 -6 -125 6 -171 25 -124 52 -353 132 -465 161 -379
99 -843 -64 -1146 -402 -197 -221 -320 -518 -362 -874 -15 -125 -7 -494 12
-603 2 -9 7 -39 11 -67 5 -27 9 -52 10 -55 1 -3 5 -25 9 -50 25 -145 122 -461
192 -622 40 -94 142 -296 187 -372 16 -28 68 -107 114 -176 304 -445 523 -625
773 -635 140 -6 232 16 440 103 84 35 151 58 200 69 8 1 44 9 80 16 86 18 252
12 356 -13 45 -10 126 -38 181 -61 124 -52 228 -88 273 -95 19 -3 42 -7 50
-10 31 -11 199 -4 255 11 149 39 281 129 420 286 62 70 89 102 107 129 10 14
38 54 64 90 134 189 233 356 311 525 60 132 125 311 121 335 -2 15 -28 34 -88
66 -371 196 -586 551 -581 958 1 76 10 186 16 196 2 4 6 20 9 36 17 96 78 233
155 348 58 87 205 237 294 300 37 26 67 54 67 63 0 47 -198 257 -315 334 -172
113 -370 184 -577 205 -53 6 -207 12 -211 8z"/>
</g>
</svg>
